<?xml version="1.0" encoding="UTF-8"?>
<svg xmlns="http://www.w3.org/2000/svg" xmlns:xlink="http://www.w3.org/1999/xlink" viewBox="0 0 60 60" width="60px" height="60px">
<g id="surface3393262">
<path style="fill-rule:nonzero;fill:rgb(100%,100%,100%);fill-opacity:1;stroke-width:15;stroke-linecap:butt;stroke-linejoin:round;stroke:rgb(100%,100%,100%);stroke-opacity:1;stroke-miterlimit:10;" d="M 131.862769 74.534306 C 131.862769 88.276097 126.981938 100.885924 118.887792 110.781474 L 153.114467 145.008149 C 154.623752 146.456576 155.220162 148.586614 154.696781 150.594936 C 154.173401 152.603258 152.603258 154.173401 150.594936 154.696781 C 148.586614 155.220162 146.456576 154.623752 145.008149 153.114467 L 110.781474 118.887792 C 100.885924 126.981938 88.276097 131.862769 74.534306 131.862769 C 42.936707 131.862769 17.205842 106.131905 17.205842 74.534306 C 17.205842 42.936707 42.936707 17.205842 74.534306 17.205842 C 106.131905 17.205842 131.862769 42.936707 131.862769 74.534306 Z M 28.671535 74.534306 C 28.671535 99.936536 49.132076 120.397076 74.534306 120.397076 C 99.936536 120.397076 120.397076 99.936536 120.397076 74.534306 C 120.397076 49.132076 99.936536 28.671535 74.534306 28.671535 C 49.132076 28.671535 28.671535 49.132076 28.671535 74.534306 Z M 28.671535 74.534306 " transform="matrix(0.32093,0,0,0.32093,2.4,2.4)"/>
<path style=" stroke:none;fill-rule:nonzero;fill:rgb(100%,100%,100%);fill-opacity:1;" d="M 26.320312 7.921875 C 16.179688 7.921875 7.921875 16.179688 7.921875 26.320312 C 7.921875 36.460938 16.179688 44.71875 26.320312 44.71875 C 30.730469 44.71875 34.777344 43.152344 37.953125 40.554688 L 48.9375 51.539062 C 49.402344 52.023438 50.085938 52.214844 50.730469 52.046875 C 51.375 51.878906 51.878906 51.375 52.046875 50.730469 C 52.214844 50.085938 52.023438 49.402344 51.539062 48.9375 L 40.554688 37.953125 C 43.152344 34.777344 44.71875 30.730469 44.71875 26.320312 C 44.71875 16.179688 36.460938 7.921875 26.320312 7.921875 Z M 26.320312 11.601562 C 34.472656 11.601562 41.039062 18.167969 41.039062 26.320312 C 41.039062 34.472656 34.472656 41.039062 26.320312 41.039062 C 18.167969 41.039062 11.601562 34.472656 11.601562 26.320312 C 11.601562 18.167969 18.167969 11.601562 26.320312 11.601562 Z M 26.320312 11.601562 "/>
</g>
</svg>
